<svg xmlns="http://www.w3.org/2000/svg" width="50" height="32"><path data-name="Shape 1" d="M36.743 26.984v-.053H19.1v.053a4.958 4.958 0 11-9.916 0v-.053H4.956a1.628 1.628 0 01-1.618-1.636v-1.743H.78a.792.792 0 010-1.584H8.3a.792.792 0 010 1.584H4.908v1.743a.051.051 0 00.051.052h4.5a4.938 4.938 0 019.371 0h16.243V19.38a.783.783 0 111.566 0v5.968h.377a4.937 4.937 0 019.371 0h2.048v-3.486h-.887a2.471 2.471 0 01-2.453-2.482v-1.689a.788.788 0 01.783-.792h2.434a2.563 2.563 0 00-2.433-1.8H36.64v.9a.783.783 0 11-1.566 0V1.635a.052.052 0 00-.052-.052H4.958a.051.051 0 00-.051.052v14.366a.783.783 0 11-1.566 0V1.638A1.629 1.629 0 014.958.001H35.02a1.629 1.629 0 011.618 1.637v1.743h5.9a3.311 3.311 0 013.289 3.326v.844a.791.791 0 01-.62.775l1.3 5.241a4.163 4.163 0 013.5 4.123v8.449a.788.788 0 01-.783.792h-2.559v.053a4.958 4.958 0 11-9.916 0zm1.566 0a3.393 3.393 0 103.392-3.433 3.416 3.416 0 00-3.392 3.433zm-27.557 0a3.392 3.392 0 103.392-3.433 3.416 3.416 0 00-3.392 3.433zm35.907-7.6a.894.894 0 00.887.9h.887v-1.8h-1.775zm-10.021-5.861h8.235l-1.278-5.175h-6.957zm0-6.759h7.62v-.053a1.735 1.735 0 00-1.723-1.742h-5.9zm3.442 20.221a1.62 1.62 0 111.62 1.64 1.63 1.63 0 01-1.62-1.644zm-27.56 0a1.62 1.62 0 111.62 1.64 1.63 1.63 0 01-1.62-1.644zm8.3-3.429a.792.792 0 010-1.585h11.691a.792.792 0 010 1.585zm-18.372-3.38a.792.792 0 010-1.585h10.021a.792.792 0 010 1.585zm16.148-3.612l-4.175-4.225a.8.8 0 010-1.12.777.777 0 011.107 0l3.622 3.665 6.962-7.044a.776.776 0 011.107 0 .8.8 0 010 1.12l-7.516 7.6a.778.778 0 01-1.107 0z" fill="#71899b"/></svg>