<svg xmlns="http://www.w3.org/2000/svg" width="32" height="32"><path data-name="Forma 1" d="M32 5.446h-6.727A3.417 3.417 0 0022.538.001a3.461 3.461 0 00-2.382 1.021L16 5.178l-4.155-4.156A3.2 3.2 0 009.463.001a3.417 3.417 0 00-2.735 5.445H0v8.1h2.722v18.455h26.549V13.55h2.722v-8.1zM21.1 1.977a2.118 2.118 0 011.427-.615 2.042 2.042 0 110 4.084h-4.895zM7.417 3.404a2 2 0 012.042-2.042 2.24 2.24 0 011.427.615l3.475 3.469h-4.9a2 2 0 01-2.04-2.045zm-6.06 8.784v-5.38h13.958v5.38zm2.722 1.362h11.236v17.09H4.079zm23.833 17.1H16.68v-17.1h11.236v17.1zm2.722-18.458H16.68v-5.38h13.958z" fill="#71899b"/></svg>